REM DIRINDEX 1\2,1\3,1\4
REM DIRNAME folder01,folder02,folder03,folder04
TITLE ""
FILE "DISC2Track25.mp3" MP3
  TRACK 01 AUDIO
    TITLE "4:cjc038_1671"
    INDEX 01 00:00:00
  TRACK 02 AUDIO
    TITLE "0:"
    INDEX 01 00:03:19
  TRACK 03 AUDIO
    TITLE "4:cjc038_1672"
    INDEX 01 00:03:37
  TRACK 04 AUDIO
    TITLE "0:"
    INDEX 01 00:06:10
  TRACK 05 AUDIO
    TITLE "2:cjc038_1673"
    INDEX 01 00:07:49
  TRACK 06 AUDIO
    TITLE "0:"
    INDEX 01 00:10:51
  TRACK 07 AUDIO
    TITLE "3:cjc038_1674"
    INDEX 01 00:10:59
  TRACK 08 AUDIO
    TITLE "0:"
    INDEX 01 00:13:45
  TRACK 09 AUDIO
    TITLE "2:cjc038_1675"
    INDEX 01 00:14:31
  TRACK 10 AUDIO
    TITLE "0:"
    INDEX 01 00:16:65
  TRACK 11 AUDIO
    TITLE "3:cjc038_1676"
    INDEX 01 00:16:73
  TRACK 12 AUDIO
    TITLE "0:"
    INDEX 01 00:19:20
  TRACK 13 AUDIO
    TITLE "2:cjc038_1677"
    INDEX 01 00:20:06
  TRACK 14 AUDIO
    TITLE "0:"
    INDEX 01 00:22:64
  TRACK 15 AUDIO
    TITLE "2:cjc038_1678"
    INDEX 01 00:22:66
  TRACK 16 AUDIO
    TITLE "0:"
    INDEX 01 00:24:25
  TRACK 17 AUDIO
    TITLE "3:cjc038_1679"
    INDEX 01 00:24:35
  TRACK 18 AUDIO
    TITLE "0:"
    INDEX 01 00:27:16
  TRACK 19 AUDIO
    TITLE "3:cjc038_1680"
    INDEX 01 00:27:18
  TRACK 20 AUDIO
    TITLE "0:"
    INDEX 01 00:28:47
  TRACK 21 AUDIO
    TITLE "2:cjc038_1681"
    INDEX 01 00:29:21
  TRACK 22 AUDIO
    TITLE "0:"
    INDEX 01 00:31:49
  TRACK 23 AUDIO
    TITLE "2:cjc038_1682"
    INDEX 01 00:31:53
  TRACK 24 AUDIO
    TITLE "0:"
    INDEX 01 00:33:03
  TRACK 25 AUDIO
    TITLE "3:cjc038_1683"
    INDEX 01 00:33:07
  TRACK 26 AUDIO
    TITLE "0:"
    INDEX 01 00:35:27
  TRACK 27 AUDIO
    TITLE "3:cjc038_1684"
    INDEX 01 00:35:37
  TRACK 28 AUDIO
    TITLE "0:"
    INDEX 01 00:36:56
  TRACK 29 AUDIO
    TITLE "2:cjc038_1685"
    INDEX 01 00:38:26
  TRACK 30 AUDIO
    TITLE "0:"
    INDEX 01 00:41:51
  TRACK 31 AUDIO
    TITLE "3:cjc038_1686"
    INDEX 01 00:41:59
  TRACK 32 AUDIO
    TITLE "0:"
    INDEX 01 00:44:56
  TRACK 33 AUDIO
    TITLE "2:cjc038_1687"
    INDEX 01 00:45:47
  TRACK 34 AUDIO
    TITLE "0:"
    INDEX 01 00:48:34
  TRACK 35 AUDIO
    TITLE "3:cjc038_1688"
    INDEX 01 00:48:44
  TRACK 36 AUDIO
    TITLE "0:"
    INDEX 01 00:51:22
  TRACK 37 AUDIO
    TITLE "2:cjc038_1689"
    INDEX 01 00:51:71
  TRACK 38 AUDIO
    TITLE "0:"
    INDEX 01 00:55:51
  TRACK 39 AUDIO
    TITLE "3:cjc038_1690"
    INDEX 01 00:55:63
  TRACK 40 AUDIO
    TITLE "0:"
    INDEX 01 00:59:26
  TRACK 41 AUDIO
    TITLE "2:cjc038_1691"
    INDEX 01 01:00:10
  TRACK 42 AUDIO
    TITLE "0:"
    INDEX 01 01:05:42
  TRACK 43 AUDIO
    TITLE "3:cjc038_1692"
    INDEX 01 01:05:48
  TRACK 44 AUDIO
    TITLE "0:"
    INDEX 01 01:10:71
  TRACK 45 AUDIO
    TITLE "2:cjc038_1693"
    INDEX 01 01:12:48
  TRACK 46 AUDIO
    TITLE "0:"
    INDEX 01 01:16:40
  TRACK 47 AUDIO
    TITLE "3:cjc038_1694"
    INDEX 01 01:16:50
  TRACK 48 AUDIO
    TITLE "0:"
    INDEX 01 01:20:24
  TRACK 49 AUDIO
    TITLE "2:cjc038_1695"
    INDEX 01 01:21:10
  TRACK 50 AUDIO
    TITLE "0:"
    INDEX 01 01:24:65
  TRACK 51 AUDIO
    TITLE "3:cjc038_1696"
    INDEX 01 01:25:00
  TRACK 52 AUDIO
    TITLE "0:"
    INDEX 01 01:28:41
  TRACK 53 AUDIO
    TITLE "2:cjc038_1697"
    INDEX 01 01:29:25
  TRACK 54 AUDIO
    TITLE "0:"
    INDEX 01 01:34:05
  TRACK 55 AUDIO
    TITLE "3:cjc038_1698"
    INDEX 01 01:34:14
  TRACK 56 AUDIO
    TITLE "0:"
    INDEX 01 01:38:53
  TRACK 57 AUDIO
    TITLE "2:cjc038_1699"
    INDEX 01 01:39:41
  TRACK 58 AUDIO
    TITLE "0:"
    INDEX 01 01:43:09
  TRACK 59 AUDIO
    TITLE "3:cjc038_1700"
    INDEX 01 01:43:19
  TRACK 60 AUDIO
    TITLE "0:"
    INDEX 01 01:46:55
  TRACK 61 AUDIO
    TITLE "2:cjc038_1701"
    INDEX 01 01:48:28
  TRACK 62 AUDIO
    TITLE "0:"
    INDEX 01 01:52:18
  TRACK 63 AUDIO
    TITLE "3:cjc038_1702"
    INDEX 01 01:52:30
  TRACK 64 AUDIO
    TITLE "0:"
    INDEX 01 01:56:06
  TRACK 65 AUDIO
    TITLE "2:cjc038_1703"
    INDEX 01 01:56:63
  TRACK 66 AUDIO
    TITLE "0:"
    INDEX 01 02:03:12
  TRACK 67 AUDIO
    TITLE "3:cjc038_1704"
    INDEX 01 02:03:22
  TRACK 68 AUDIO
    TITLE "0:"
    INDEX 01 02:09:34
